# xmcd
#
# Track frame offsets:
#	150
#	18708
#	36167
#	73452
#	106423
#	143356
#	176274
#	204536
#	243300
#	270962
#	297143
#	316737
#
# Disc length: 4491 seconds
# Revision: 0
# Processed by: cddbd v1.5.2PL0 Copyright (c) Steve Scherf et al.
# Submitted via: dBpowerAMP V12.0
#
DISCID=a511890c
DTITLE=Lyndsay Faye - Der Teufel von New York 2
DYEAR=2013
DGENRE=Vocal
TTITLE0=15
TTITLE1=16
TTITLE2=17
TTITLE3=18
TTITLE4=19
TTITLE5=20
TTITLE6=21
TTITLE7=22
TTITLE8=23
TTITLE9=24
TTITLE10=25
TTITLE11=26
EXTD=
EXTT0=
EXTT1=
EXTT2=
EXTT3=
EXTT4=
EXTT5=
EXTT6=
EXTT7=
EXTT8=
EXTT9=
EXTT10=
EXTT11=
PLAYORDER=
